<svg id="Capa_1" data-name="Capa 1" xmlns="http://www.w3.org/2000/svg" viewBox="0 0 418.48 450.48"><defs><style>.cls-1{font-size:200px;font-family:Lato;font-weight:700;}</style></defs><title>shopping-cart</title><path d="M151.9,313H401.7a50.08,50.08,0,0,0,50-50V157.7a11.1,11.1,0,0,0-22.2,0V262.9a27.7,27.7,0,0,1-27.7,27.7H151.9a27.7,27.7,0,0,1-27.7-27.7V57.4a4.87,4.87,0,0,0-.1-1.2V55.9a5.64,5.64,0,0,0-.1-0.7,1.85,1.85,0,0,0-.2-0.7c0-.1-0.1-0.3-0.1-0.4a4.87,4.87,0,0,0-.3-0.7c0-.1-0.1-0.2-0.1-0.3s-0.2-.5-0.3-0.7-0.1-.3-0.2-0.4l-0.3-.6c-0.1-.2-0.2-0.3-0.3-0.5s-0.2-.3-0.3-0.4a2.18,2.18,0,0,0-.4-0.5l-0.3-.3c-0.2-.2-0.3-0.4-0.5-0.6a0.53,0.53,0,0,0-.3-0.2,2.65,2.65,0,0,0-.6-0.5l-0.3-.3c-0.2-.1-0.4-0.3-0.6-0.4s-0.5-.3-0.7-0.5A0.22,0.22,0,0,1,118,47c-0.4-.2-0.7-0.4-1.1-0.6L48.7,18.1A11.13,11.13,0,1,0,40,38.6l61.8,26.1V341.2A50,50,0,0,0,147.6,391a49.37,49.37,0,1,0,82.4.2H348.3a49.4,49.4,0,1,0,41.3-22.3H151.9a27.7,27.7,0,0,1-27.7-27.7V304.5A49.8,49.8,0,0,0,151.9,313Zm64,105.3a27.1,27.1,0,1,1-27.1-27.1A27.12,27.12,0,0,1,215.9,418.3Zm200.9,0a27.1,27.1,0,1,1-27.1-27.1A27.12,27.12,0,0,1,416.8,418.3Z" transform="translate(-33.22 -17.22)"/><text class="cls-1" transform="translate(127.78 230.78)">03</text></svg>