<svg id="Layer_1" data-name="Layer 1" xmlns="http://www.w3.org/2000/svg" viewBox="0 0 354.04 113.25"><defs><style>.cls-1{font-size:48.67px;font-family:Lato;}.cls-2{letter-spacing:-1px;}</style></defs><title>logo</title><path d="M119.49,118.06a2.06,2.06,0,0,0-2.94,0l-1.32,1.32-1.32-1.32A2.08,2.08,0,1,0,111,121l1.32,1.32L111,123.63a2.08,2.08,0,1,0,2.94,2.94l1.32-1.32,1.32,1.32a2.08,2.08,0,0,0,2.94-2.94l-1.32-1.32,1.32-1.32A2.1,2.1,0,0,0,119.49,118.06Z" transform="translate(-31.11 -69.23)"/><path d="M136.26,100.08l1.32-1.32a2.08,2.08,0,1,0-2.94-2.94l-1.32,1.32L132,95.82a2.08,2.08,0,0,0-2.94,2.94l1.32,1.32-1.32,1.32a2.08,2.08,0,1,0,2.94,2.94l1.32-1.32,1.32,1.32a2.08,2.08,0,0,0,2.94-2.94Z" transform="translate(-31.11 -69.23)"/><path d="M137.55,140.29a2.06,2.06,0,0,0-2.94,0l-1.32,1.32L132,140.29a2.08,2.08,0,1,0-2.94,2.94l1.32,1.32L129,145.87a2.08,2.08,0,1,0,2.94,2.94l1.32-1.32,1.32,1.32a2.08,2.08,0,0,0,2.94-2.94l-1.32-1.32,1.32-1.32A2.06,2.06,0,0,0,137.55,140.29Z" transform="translate(-31.11 -69.23)"/><path d="M101.41,95.82a2.06,2.06,0,0,0-2.94,0l-1.32,1.32-1.32-1.32a2.08,2.08,0,0,0-2.94,2.94l1.32,1.32L92.9,101.4a2.08,2.08,0,1,0,2.94,2.94L97.16,103l1.32,1.32a2.08,2.08,0,0,0,2.94-2.94l-1.32-1.32,1.32-1.32A2.06,2.06,0,0,0,101.41,95.82Z" transform="translate(-31.11 -69.23)"/><path d="M65.27,140.29a2.06,2.06,0,0,0-2.94,0L61,141.61l-1.32-1.32a2.08,2.08,0,1,0-2.94,2.94l1.32,1.32-1.32,1.32a2.08,2.08,0,1,0,2.94,2.94L61,147.49l1.32,1.32a2.08,2.08,0,0,0,2.94-2.94L64,144.55l1.32-1.32A2.1,2.1,0,0,0,65.27,140.29Z" transform="translate(-31.11 -69.23)"/><path d="M101.41,140.29a2.06,2.06,0,0,0-2.94,0l-1.32,1.32-1.32-1.32a2.08,2.08,0,1,0-2.94,2.94l1.32,1.32-1.32,1.32a2.08,2.08,0,1,0,2.94,2.94l1.32-1.32,1.32,1.32a2.08,2.08,0,0,0,2.94-2.94l-1.32-1.32,1.32-1.32A2.06,2.06,0,0,0,101.41,140.29Z" transform="translate(-31.11 -69.23)"/><path d="M65.27,95.82a2.06,2.06,0,0,0-2.94,0L61,97.14,59.7,95.82a2.08,2.08,0,0,0-2.94,2.94l1.32,1.32-1.32,1.32a2.08,2.08,0,1,0,2.94,2.94L61,103l1.32,1.32a2.08,2.08,0,0,0,2.94-2.94L64,100.08l1.32-1.32A2.1,2.1,0,0,0,65.27,95.82Z" transform="translate(-31.11 -69.23)"/><path d="M162.21,161.57L157,151.1a20.25,20.25,0,0,1-2.12-9V102.53a20.43,20.43,0,0,1,2.12-9L162.26,83a8.71,8.71,0,0,0,.93-3.95,8.86,8.86,0,0,0-9.8-8.8,8.59,8.59,0,0,0-3.07.93L139.85,76.4a20.25,20.25,0,0,1-9,2.12H63.49a20.43,20.43,0,0,1-9-2.12L44,71.16a8.59,8.59,0,0,0-3.07-.93,8.88,8.88,0,0,0-6.86,2.22A8.8,8.8,0,0,0,32,83L37.34,93.5a20.27,20.27,0,0,1,2.12,9v39.54a20.43,20.43,0,0,1-2.12,9l-5.24,10.5a9.69,9.69,0,0,0-.93,3,8.83,8.83,0,0,0,9.78,9.78,8.34,8.34,0,0,0,3-.93l10.5-5.21a20.25,20.25,0,0,1,9-2.12h67.35a20.43,20.43,0,0,1,9,2.12l10.47,5.24a9.69,9.69,0,0,0,3,.93c0.34,0,.67.05,1,0.05a8.82,8.82,0,0,0,8.77-9.83A8.36,8.36,0,0,0,162.21,161.57Zm-4.57,7.33a4.69,4.69,0,0,1-3.84,1.34,4.57,4.57,0,0,1-1.63-.52l-10.47-5.24a24.48,24.48,0,0,0-10.89-2.58H63.49a24.14,24.14,0,0,0-10.89,2.58l-10.47,5.24a5.37,5.37,0,0,1-1.63.52,4.68,4.68,0,0,1-5.18-5.18,4.57,4.57,0,0,1,.52-1.63L41.08,153a24.48,24.48,0,0,0,2.58-10.89V102.53a24.14,24.14,0,0,0-2.58-10.89L35.79,81.1A4.87,4.87,0,0,1,35.3,79a4.75,4.75,0,0,1,1.55-3.48,4.59,4.59,0,0,1,3.64-1.16,4.69,4.69,0,0,1,1.65.52l10.47,5.24a24.48,24.48,0,0,0,10.89,2.58h67.32a24.14,24.14,0,0,0,10.89-2.58l10.47-5.24a4.86,4.86,0,0,1,1.65-.52,4.59,4.59,0,0,1,3.64,1.16A4.67,4.67,0,0,1,159,79a4.87,4.87,0,0,1-.49,2.09l-5.29,10.55a24.48,24.48,0,0,0-2.58,10.89v26.08h0v10.76h0v2.71A24.14,24.14,0,0,0,153.23,153l5.24,10.47a5.16,5.16,0,0,1,.52,1.63A4.69,4.69,0,0,1,157.64,168.9Z" transform="translate(-31.11 -69.23)"/><path d="M83.33,118.06a2.06,2.06,0,0,0-2.94,0l-1.32,1.32-1.32-1.32A2.08,2.08,0,0,0,74.82,121l1.32,1.32-1.32,1.32a2.08,2.08,0,1,0,2.94,2.94l1.32-1.32,1.32,1.32a2.08,2.08,0,1,0,2.94-2.94L82,122.31,83.33,121A2.06,2.06,0,0,0,83.33,118.06Z" transform="translate(-31.11 -69.23)"/><text class="cls-1" transform="translate(141.02 41.77)">F<tspan x="27.09" y="0">lip </tspan><tspan class="cls-2" x="90" y="0">S</tspan><tspan x="115.31" y="0">ti</tspan><tspan x="145.29" y="0">t</tspan><tspan x="162.62" y="0">ch</tspan><tspan x="0" y="58.41">P</tspan><tspan x="29.08" y="58.41">ill</tspan><tspan x="63.74" y="58.41">o</tspan><tspan x="90.97" y="58.41">w</tspan><tspan x="129.01" y="58.41">s</tspan></text></svg>